<?xml version="1.0" standalone="no"?>
<!DOCTYPE svg PUBLIC "-//W3C//DTD SVG 20010904//EN"
 "http://www.w3.org/TR/2001/REC-SVG-20010904/DTD/svg10.dtd">
<svg version="1.0" xmlns="http://www.w3.org/2000/svg"
 width="108.000000pt" height="35.000000pt" viewBox="0 0 108.000000 35.000000"
 preserveAspectRatio="xMidYMid meet">

<g transform="translate(0.000000,35.000000) scale(0.100000,-0.100000)"
fill="#000000" stroke="none">
<path d="M75 340 c-38 -12 -55 -35 -55 -75 0 -48 18 -63 115 -98 66 -24 93
-38 102 -56 24 -50 -26 -87 -107 -78 -48 5 -90 41 -90 78 0 13 -7 19 -21 19
-19 0 -21 -4 -15 -32 4 -18 20 -46 36 -63 29 -28 35 -30 109 -30 71 0 82 3
106 25 21 20 25 32 23 64 -2 33 -9 44 -37 63 -19 13 -59 31 -88 39 -69 20
-108 52 -99 81 9 27 64 46 102 37 37 -8 74 -42 74 -66 0 -11 7 -18 20 -18 11
0 20 5 20 11 0 22 -31 75 -51 87 -27 17 -106 24 -144 12z"/>
<path d="M863 335 c-17 -7 -36 -22 -42 -34 -32 -59 5 -102 119 -139 73 -23 86
-31 95 -55 13 -40 -3 -60 -58 -71 -66 -13 -118 8 -133 54 -7 19 -20 37 -29 39
-15 3 -17 -2 -12 -34 8 -47 30 -72 76 -85 78 -22 168 -3 190 38 33 61 -4 109
-107 143 -87 28 -112 44 -112 73 0 72 146 68 173 -4 13 -35 37 -40 37 -7 0 73
-111 120 -197 82z"/>
<path d="M400 198 c-51 -79 -100 -153 -108 -165 -13 -22 -13 -23 9 -23 20 1
42 28 124 157 55 86 102 160 103 165 2 4 -5 8 -16 8 -15 0 -45 -38 -112 -142z"/>
<path d="M540 175 c0 -157 1 -165 20 -165 17 0 19 8 22 69 l3 69 80 -68 c58
-50 88 -69 109 -69 25 -1 18 7 -67 77 -53 42 -96 80 -96 84 -1 4 38 39 87 79
48 40 91 76 97 81 5 4 -2 8 -17 8 -18 0 -54 -23 -112 -71 l-86 -70 0 70 c0 64
-2 71 -20 71 -19 0 -20 -7 -20 -165z"/>
<path d="M460 130 l-35 -29 28 -1 c20 0 30 -7 37 -25 15 -38 20 -30 20 30 0
30 -4 55 -8 55 -4 0 -23 -13 -42 -30z"/>
</g>
</svg>
